<?xml version="1.0"?>
<svg width="640" height="480" xmlns="http://www.w3.org/2000/svg" xmlns:svg="http://www.w3.org/2000/svg">
 <!-- Created with SVG-edit - https://github.com/SVG-Edit/svgedit-->
 <g class="layer">
  <title>Layer 1</title>
  <path d="m37,8c-31,182 164,32 48,-7c-16,2.33 -32,4.67 -48,7z" fill="#00bfbf" id="svg_1" stroke="#000000" transform="matrix(1 0 0 1 0 0) rotate(179.574 77.9187 48.5738)"/>
  <path d="m91,25c-0.89,0 -1.85,-0.04 -2.69,0.09c-1.01,0.15 -1.81,0.4 -2.54,0.72c-0.82,0.36 -1.56,0.91 -2.54,1.12c-0.74,0.16 -1.59,0.16 -2.55,0.65c-0.74,0.38 -1.16,0.85 -2.33,1.41c-0.65,0.31 -1.38,0.51 -2.11,0.77c-1.09,0.4 -1.78,0.71 -2.73,1.27c-0.63,0.37 -1.52,0.98 -2.12,1.38c-0.59,0.39 -1.44,0.96 -2.23,1.43c-0.91,0.55 -1.51,0.85 -2.41,1.46c-0.77,0.53 -1.52,0.66 -2.26,1.23c-0.78,0.59 -1.2,1.18 -1.9,1.88c-0.7,0.7 -1.25,1.16 -1.9,1.9c-0.58,0.66 -0.49,1.54 -0.76,2.4c-0.27,0.87 -1.51,1.01 -1.91,1.74c-0.41,0.77 -0.15,1.75 -0.56,2.56c-0.43,0.86 -1.15,1.4 -1.42,2.3c-0.26,0.86 0.12,1.85 -0.22,2.7c-0.28,0.67 -0.81,1.4 -0.83,2.3c-0.02,0.9 -0.33,1.73 -0.72,2.5c-0.39,0.79 -0.18,1.7 -0.34,2.55c-0.18,0.93 -0.85,1.64 -0.94,2.41c-0.1,0.89 0,1.76 0,2.72c0,0.93 -0.15,1.87 0.07,2.7c0.23,0.86 1.03,1.24 1.76,1.99c0.59,0.6 0.82,1.37 1.17,2.31c0.3,0.84 0.72,1.56 1.08,2.32c0.41,0.87 1.12,1.4 1.72,2c0.68,0.69 1.09,1.52 1.37,2.37c0.22,0.68 0.5,1.46 1.23,2.19c0.69,0.69 1.43,1.11 2.04,1.75c0.48,0.49 1.21,1.3 1.89,1.73c0.74,0.47 1.92,0.32 2.38,0.97c0.53,0.74 1.05,1.2 1.94,1.2c0.86,0 1.72,0 2.67,0c0.85,0 1.79,0 2.68,0c0.89,0 1.83,0 2.52,0c0.98,0 1.97,0.05 2.69,-0.04c1,-0.12 1.75,-0.52 2.62,-0.8c0.78,-0.24 1.69,-0.38 2.34,-0.81c0.87,-0.58 1.14,-1.5 1.93,-2.11c0.61,-0.48 1.5,-0.85 2.2,-1.54c0.5,-0.5 1.23,-1.17 1.9,-1.9c0.54,-0.58 0.85,-1.45 1.51,-1.85c0.77,-0.47 1.18,-1.29 1.72,-1.92c0.52,-0.6 0.92,-1.34 1.46,-1.91c0.75,-0.78 1.23,-1.34 2.09,-1.87c0.81,-0.5 1.57,-0.91 1.96,-1.6c0.47,-0.82 -0.14,-1.96 0.39,-2.64c0.51,-0.66 1.49,-0.95 1.66,-1.8c0.18,-0.88 0.01,-1.8 0,-2.7c-0.01,-0.9 -0.45,-1.61 -0.83,-2.5c-0.32,-0.75 -0.17,-1.7 -0.17,-2.6c0,-0.9 -0.01,-1.79 -0.5,-2.4c-0.52,-0.65 -0.8,-1.48 -1.07,-2.17c-0.36,-0.93 -0.67,-1.78 -1.07,-2.53c-0.41,-0.76 -0.35,-1.7 -0.35,-2.6c0,-0.9 -0.36,-1.64 -1,-2.2c-0.58,-0.52 -0.92,-1.3 -1.54,-2c-0.53,-0.6 -1.48,-0.97 -2.29,-1.5c-0.69,-0.45 -1.48,-0.92 -2.17,-0.98c-0.98,-0.08 -2,-0.02 -2.8,-0.02c-0.9,0 -1.75,-0.03 -2.74,0.22c-0.72,0.18 -1.48,0.42 -2.31,0.88c-0.79,0.44 -1.63,1.09 -2.32,1.5c-0.81,0.49 -1.35,1.14 -2.23,1.36c-0.87,0.22 -1.44,0.55 -1.96,1.34c-0.52,0.8 -1.32,1.12 -1.59,2c-0.26,0.86 0.13,1.85 -0.22,2.7c-0.32,0.78 -0.78,1.54 -1.05,2.32c-0.3,0.87 -0.69,1.79 -0.78,2.68c-0.08,0.8 -0.69,1.42 -0.94,2.3c-0.25,0.87 0.04,1.82 -0.14,2.59c-0.23,0.97 -0.74,1.61 -0.89,2.59c-0.14,0.92 -0.17,1.88 -0.54,2.5c-0.49,0.84 -1.57,1.24 -1.48,2.12c0.09,0.86 0.94,1.26 1.5,1.9c0.52,0.58 1.2,1 2.1,1c0.9,0 1.8,0 2.7,0c0.9,0 1.8,0 2.7,0c0.8,0 1.7,0 2.6,0c0.9,0 1.87,0.14 2.6,-0.29c0.69,-0.39 1.3,-1.21 2,-1.92l0.5,-0.56l0.5,-0.73l0.37,-0.69" fill="none" id="svg_4" stroke="#000000" transform="matrix(1 0 0 1 0 0)"/>
  <ellipse cx="108.5" cy="98.5" fill="#3f7f00" id="svg_6" rx="40.5" ry="9.5" stroke="#000000"/>
  <path d="m139,91c49,-61 49,-61 49,-61c0,0 -49,61 -49,61z" fill="#FF0000" id="svg_7" stroke="#000000"/>
  <path d="m130,91c0,0 26,-65 26,-65l-26,65z" fill="#FF0000" id="svg_8" stroke="#000000"/>
  <ellipse cx="194" cy="26" fill="#FF0000" id="svg_9" rx="7" ry="9" stroke="#000000"/>
  <ellipse cx="159" cy="22" fill="#FF0000" id="svg_10" rx="8" ry="8" stroke="#000000"/>
  <rect fill="#FF0000" height="129" id="svg_15" stroke="#000000" stroke-width="5" width="253" x="300" y="68"/>
  <path d="m223.94,177.27c-3.87,-1.75 1.18,-5.24 3.09,-6.78c1.29,-1.19 -7.38,0.17 -3.72,-3.96c4.02,-3.37 2.5,-9.08 -1.52,-11.73c-5.52,-3.73 -12.61,-6.92 -14.65,-13.89c-2.06,-4.34 2.83,-8.91 -0.32,-12.82c-2.53,-5.09 0.43,-10.39 2.27,-15.1c0.85,-6.52 -4.34,-11.67 -7.19,-17.03c-3.53,-5.12 -5.56,-11.08 -5.86,-17.29c-0.77,-2.65 0.08,-6.77 3.15,-3.2c6.42,5.14 13.46,10.02 17.96,17.05c0.85,2.54 4.26,9.91 4.45,3.24c0.09,-9.17 2.89,-19.16 10.06,-25.31c4.88,-4.45 7.51,3.34 7.74,7.29c1.27,7.78 -0.84,15.5 -3.18,22.86c-0.86,3.42 -3.1,12.78 3.29,9.33c14.74,-5.69 32.59,0.29 42.19,12.51c4.41,5.92 6.34,13.52 6.3,20.82c-2.27,4.29 6.17,-0.08 3.11,4.87c-1.8,5.48 -6.89,8.45 -10.45,12.59c-3.63,3.31 -0.94,10.4 -6.93,11.45c-8.75,2.7 -17.94,3.88 -27.05,4.57c-5.1,1.04 -7.57,-4.78 -2.69,-7.21c2.34,-3.61 9.04,-3.86 11.03,-4.44c-4.76,0.47 -10.63,-1.48 -14.64,1.47c-2.43,3.94 -4.37,9.13 -9.46,10.26c-2.29,0.64 -4.64,1.15 -6.98,0.45z" fill="#b2b2b2" id="svg_16" stroke="#000000" stroke-width="4"/>
  <path d="m117.42,271.63l28.86,0l0,0l43.28,0l101,0l0,67.33l0,0l0,28.86l0,19.24l-101,0l-71.86,56.57l28.58,-56.57l-28.86,0l0,-19.24l0,-28.86l0,0l0,-67.33z" fill="#b2b2b2" id="svg_17" stroke="#000000"/>
  <text fill="#000000" font-family="Serif" font-size="24" id="svg_19" stroke="#000000" stroke-width="0" text-anchor="middle" transform="matrix(2.29611 0 0 3.55307 -408.269 -185.589)" x="342" xml:space="preserve" y="94">SVG</text>
  <text fill="#000000" font-family="Serif" font-size="24" font-style="italic" id="svg_20" stroke="#000000" stroke-width="0" text-anchor="middle" transform="matrix(1.70054 0 0 2.65302 -114.193 -482.343)" x="167.95" xml:space="preserve" y="308.1">SVG</text>
  <path d="m516.07,352.29c0,-22.61 -58.65,-40.94 -131,-40.94l0,-32.75l0,0c72.35,0 131,18.33 131,40.94l0,32.75c0,18.67 -40.41,34.97 -98.25,39.64l0,16.38l-32.75,-31.45l32.75,-34.05l0,16.38l0,0c39,-3.15 71.2,-11.73 87.31,-23.26" fill="#000000" id="svg_21" stroke="#000000"/>
  <text fill="#000000" font-family="Fantasy" font-size="24" id="svg_22" stroke="#000000" stroke-width="0" text-anchor="middle" transform="rotate(-90.5712 350 372.482) matrix(1.94232 0 0 2.20292 -292.967 -400.276)" x="331.03" xml:space="preserve" y="360.18">SVG</text>
 </g>
</svg>